<svg xmlns="http://www.w3.org/2000/svg" viewBox="0 0 200 240" width="200" height="240">
  <defs>
    <linearGradient id="shieldGrad" x1="0%" y1="0%" x2="100%" y2="100%">
      <stop offset="0%" style="stop-color:#1a5c2a;stop-opacity:1" />
      <stop offset="100%" style="stop-color:#0d3d1a;stop-opacity:1" />
    </linearGradient>
    <linearGradient id="goldGrad" x1="0%" y1="0%" x2="100%" y2="100%">
      <stop offset="0%" style="stop-color:#f5c842;stop-opacity:1" />
      <stop offset="100%" style="stop-color:#c8960a;stop-opacity:1" />
    </linearGradient>
  </defs>
  <path d="M100 8 L180 35 L180 130 Q180 200 100 232 Q20 200 20 130 L20 35 Z" fill="url(#shieldGrad)" stroke="#c8960a" stroke-width="4"/>
  <path d="M100 18 L170 42 L170 128 Q170 192 100 220 Q30 192 30 128 L30 42 Z" fill="none" stroke="#f5c842" stroke-width="1.5" opacity="0.6"/>
  <rect x="68" y="58" width="64" height="80" rx="4" fill="#f5c842" opacity="0.9"/>
  <rect x="72" y="62" width="56" height="72" rx="2" fill="#1a5c2a"/>
  <line x1="78" y1="76" x2="122" y2="76" stroke="#f5c842" stroke-width="2.5" stroke-linecap="round"/>
  <line x1="78" y1="86" x2="122" y2="86" stroke="#f5c842" stroke-width="2" stroke-linecap="round"/>
  <line x1="78" y1="95" x2="114" y2="95" stroke="#f5c842" stroke-width="2" stroke-linecap="round"/>
  <line x1="78" y1="104" x2="118" y2="104" stroke="#f5c842" stroke-width="2" stroke-linecap="round"/>
  <line x1="78" y1="113" x2="110" y2="113" stroke="#f5c842" stroke-width="2" stroke-linecap="round"/>
  <line x1="78" y1="122" x2="116" y2="122" stroke="#f5c842" stroke-width="2" stroke-linecap="round"/>
  <ellipse cx="100" cy="50" rx="6" ry="10" fill="#f5c842"/>
  <polygon points="100,32 104,44 100,42 96,44" fill="#f5c842"/>
  <ellipse cx="100" cy="47" rx="3" ry="4" fill="#ff8c00" opacity="0.9"/>
  <text x="100" y="186" text-anchor="middle" font-family="Georgia, serif" font-size="8" fill="#f5c842" font-weight="bold" letter-spacing="1">UNIVERSITY OF IBADAN</text>
  <path d="M52 178 Q100 190 148 178" stroke="#f5c842" stroke-width="1" fill="none" opacity="0.6"/>
  <text x="100" y="200" text-anchor="middle" font-family="Georgia, serif" font-size="7" fill="#f5c842" letter-spacing="0.5">OMOLUABI</text>
</svg>
